<svg xmlns="http://www.w3.org/2000/svg" xmlns:xlink="http://www.w3.org/1999/xlink" viewBox="0 0 1200 1200"><defs><style>.cls-1{fill:none;}.cls-2,.cls-30,.cls-54,.cls-58,.cls-60{isolation:isolate;}.cls-3{fill:#ebe9f0;}.cls-4{fill:#ce9bb5;}.cls-5{fill:#1a4b98;}.cls-6{fill:#f485b7;}.cls-7{fill:#f184b4;}.cls-8{fill:#f184b5;}.cls-9{fill:#616262;}.cls-10{fill:url(#linear-gradient);}.cls-11{clip-path:url(#clip-path);}.cls-12{fill:#db4437;}.cls-13{fill:url(#linear-gradient-2);}.cls-14,.cls-28,.cls-30{fill:#3e2723;}.cls-14,.cls-17{fill-opacity:0.15;}.cls-15{fill:#0f9d58;}.cls-16{fill:url(#linear-gradient-3);}.cls-17{fill:#263238;}.cls-18{clip-path:url(#clip-path-2);}.cls-19{fill:#ffcd40;}.cls-20{fill:url(#linear-gradient-4);}.cls-21{clip-path:url(#clip-path-3);}.cls-22{fill:url(#radial-gradient);}.cls-23{clip-path:url(#clip-path-6);}.cls-24{fill:url(#radial-gradient-2);}.cls-25{fill:url(#radial-gradient-3);}.cls-26{fill:#f1f1f1;}.cls-27{fill:#4285f4;}.cls-28,.cls-31{fill-opacity:0.2;}.cls-29,.cls-31,.cls-92{fill:#fff;}.cls-29{fill-opacity:0.1;}.cls-30{opacity:0.1;}.cls-32,.cls-91{mix-blend-mode:multiply;}.cls-32{fill:url(#linear-gradient-8);}.cls-33{fill:#ecec9d;}.cls-34{fill:#f1f29d;}.cls-35{fill:url(#linear-gradient-9);}.cls-36{fill:url(#radial-gradient-4);}.cls-37{fill:url(#radial-gradient-5);}.cls-38{fill:url(#radial-gradient-6);}.cls-39{fill:url(#radial-gradient-7);}.cls-40{fill:url(#radial-gradient-8);}.cls-41{fill:url(#radial-gradient-9);}.cls-42{fill:url(#radial-gradient-10);}.cls-43{fill:url(#radial-gradient-11);}.cls-44{fill:url(#radial-gradient-12);}.cls-45{fill:url(#radial-gradient-13);}.cls-46{fill:url(#linear-gradient-10);}.cls-47{clip-path:url(#clip-path-10);}.cls-48{clip-path:url(#clip-path-11);}.cls-49{fill:url(#linear-gradient-11);}.cls-50{clip-path:url(#clip-path-12);}.cls-51{fill:url(#linear-gradient-12);}.cls-52{clip-path:url(#clip-path-14);}.cls-53{fill:url(#linear-gradient-13);}.cls-54{opacity:0.53;}.cls-55{stroke:#cdcdcd;stroke-linecap:round;stroke-linejoin:round;stroke-width:0.13px;fill:url(#linear-gradient-14);}.cls-56{fill:url(#radial-gradient-14);}.cls-57{fill:#f4f2f3;}.cls-58{opacity:0.41;}.cls-59{fill:#ff5150;}.cls-60{opacity:0.24;}.cls-61{fill:#95b0dd;}.cls-62{fill:#e17ba9;}.cls-63{fill:#0b0759;}.cls-64{fill:#18161f;}.cls-65{fill:#0d096c;}.cls-66{fill:#262432;}.cls-67{fill:#292664;}.cls-68{fill:#181720;}.cls-69{fill:#df7ba7;}.cls-70{fill:#231e54;}.cls-71{fill:#1a4b97;}.cls-72{fill:#e76054;}.cls-73{fill:#ffc02b;}.cls-74{fill:#fcd14b;}.cls-75{fill:#262365;}.cls-76{fill:#252424;}.cls-77{fill:url(#linear-gradient-15);}.cls-78{fill:url(#linear-gradient-16);}.cls-79{fill:url(#radial-gradient-15);}.cls-80{fill:url(#radial-gradient-16);}.cls-81{fill:url(#radial-gradient-17);}.cls-82{fill:url(#radial-gradient-18);}.cls-83{fill:url(#radial-gradient-19);}.cls-84{fill:url(#radial-gradient-20);}.cls-85{fill:url(#radial-gradient-21);}.cls-86{fill:url(#radial-gradient-22);}.cls-87{fill:url(#radial-gradient-23);}.cls-88{fill:url(#radial-gradient-24);}.cls-89{fill:url(#linear-gradient-17);}.cls-90{fill:#eeee9e;}.cls-91{fill:url(#linear-gradient-18);}.cls-92{opacity:0.5;mix-blend-mode:soft-light;}.cls-93{fill:#70ba98;}.cls-94{mix-blend-mode:overlay;}.cls-95{fill:url(#linear-gradient-19);}.cls-96{fill:url(#linear-gradient-20);}.cls-97{fill:url(#linear-gradient-21);}.cls-98{fill:url(#linear-gradient-22);}.cls-99{fill:url(#linear-gradient-23);}.cls-100{fill:url(#linear-gradient-24);}.cls-101{fill:url(#linear-gradient-25);}.cls-102{fill:url(#linear-gradient-26);}.cls-103{fill:url(#linear-gradient-27);}.cls-104{fill:url(#linear-gradient-28);}.cls-105{fill:url(#linear-gradient-29);}</style><linearGradient id="linear-gradient" x1="187.29" y1="377.66" x2="187.29" y2="351.97" gradientTransform="matrix(-1, 0.1, 0.1, 1, 581.88, -0.33)" gradientUnits="userSpaceOnUse"><stop offset="0" stop-color="#9cd4bf"/><stop offset="1" stop-color="#eeee9e"/></linearGradient><clipPath id="clip-path"><path class="cls-1" d="M430.6,374.75a3.53,3.53,0,0,1,3.53,3,3.53,3.53,0,1,1-7.05.06A3.52,3.52,0,0,1,430.6,374.75Z"/></clipPath><linearGradient id="linear-gradient-2" x1="141.98" y1="1020.75" x2="143.93" y2="1021.9" gradientTransform="matrix(1, 0, 0, -1, 286, 1398)" gradientUnits="userSpaceOnUse"><stop offset="0" stop-color="#a52714" stop-opacity="0.6"/><stop offset="0.66" stop-color="#a52714" stop-opacity="0"/></linearGradient><linearGradient id="linear-gradient-3" x1="145.14" y1="1017.14" x2="142.92" y2="1018.45" gradientTransform="matrix(1, 0, 0, -1, 286, 1398)" gradientUnits="userSpaceOnUse"><stop offset="0" stop-color="#055524" stop-opacity="0.4"/><stop offset="0.33" stop-color="#055524" stop-opacity="0"/></linearGradient><clipPath id="clip-path-2"><polygon class="cls-1" points="426.65 381.59 430.48 381.52 432.13 379.71 432.06 378.5 429.21 378.53 427.37 375.28 426.65 381.59"/></clipPath><linearGradient id="linear-gradient-4" x1="145.56" y1="1021.93" x2="146.17" y2="1019.3" gradientTransform="matrix(1, 0, 0, -1, 286, 1398)" gradientUnits="userSpaceOnUse"><stop offset="0" stop-color="#ea6100" stop-opacity="0.3"/><stop offset="0.66" stop-color="#ea6100" stop-opacity="0"/></linearGradient><clipPath id="clip-path-3"><polygon class="cls-1" points="430.62 376.3 432.06 378.5 430.48 381.52 434.63 381.45 433.94 376.28 430.62 376.3"/></clipPath><radialGradient id="radial-gradient" cx="720.47" cy="1021.72" r="3.18" gradientTransform="matrix(1, 0, 0, -1, -290, 1398)" gradientUnits="userSpaceOnUse"><stop offset="0" stop-color="#3e2723" stop-opacity="0.2"/><stop offset="1" stop-color="#3e2723" stop-opacity="0"/></radialGradient><clipPath id="clip-path-6"><polygon class="cls-1" points="427.93 374.76 427.81 376.06 429.21 378.53 430.62 376.3 433.94 376.28 433.73 374.74 427.93 374.76"/></clipPath><radialGradient id="radial-gradient-2" cx="717.81" cy="1021.94" r="2.93" xlink:href="#radial-gradient"/><radialGradient id="radial-gradient-3" cx="720.65" cy="1020.31" r="3.59" gradientTransform="matrix(1, 0, 0, -1, -290, 1398)" gradientUnits="userSpaceOnUse"><stop offset="0" stop-color="#263238" stop-opacity="0.2"/><stop offset="1" stop-color="#263238" stop-opacity="0"/></radialGradient><linearGradient id="linear-gradient-8" x1="187.29" y1="377.66" x2="187.29" y2="351.97" gradientTransform="matrix(-1, 0.1, 0.1, 1, 581.88, -0.33)" gradientUnits="userSpaceOnUse"><stop offset="0" stop-color="#84b5a2"/><stop offset="1" stop-color="#cfce85"/></linearGradient><linearGradient id="linear-gradient-9" x1="524.04" y1="938.17" x2="452.06" y2="868.72" gradientTransform="matrix(1, 0, 0, -1, 297.7, 1406)" gradientUnits="userSpaceOnUse"><stop offset="0.05" stop-color="#fff44f"/><stop offset="0.11" stop-color="#ffe847"/><stop offset="0.23" stop-color="#ffc830"/><stop offset="0.37" stop-color="#ff980e"/><stop offset="0.4" stop-color="#ff8b16"/><stop offset="0.46" stop-color="#ff672a"/><stop offset="0.53" stop-color="#ff3647"/><stop offset="0.7" stop-color="#e31587"/></linearGradient><radialGradient id="radial-gradient-4" cx="-7454.28" cy="9466.1" r="90.4" gradientTransform="matrix(1, 0, 0, -1, 8272.7, 9930)" gradientUnits="userSpaceOnUse"><stop offset="0.13" stop-color="#ffbd4f"/><stop offset="0.19" stop-color="#ffac31"/><stop offset="0.25" stop-color="#ff9d17"/><stop offset="0.28" stop-color="#ff980e"/><stop offset="0.4" stop-color="#ff563b"/><stop offset="0.47" stop-color="#ff3750"/><stop offset="0.71" stop-color="#f5156c"/><stop offset="0.78" stop-color="#eb0878"/><stop offset="0.86" stop-color="#e50080"/></radialGradient><radialGradient id="radial-gradient-5" cx="-7487.31" cy="9429.14" r="90.4" gradientTransform="matrix(1, 0, 0, -1, 8272.7, 9930)" gradientUnits="userSpaceOnUse"><stop offset="0.3" stop-color="#960e18"/><stop offset="0.35" stop-color="#b11927" stop-opacity="0.74"/><stop offset="0.43" stop-color="#db293d" stop-opacity="0.34"/><stop offset="0.5" stop-color="#f5334b" stop-opacity="0.09"/><stop offset="0.53" stop-color="#ff3750" stop-opacity="0"/></radialGradient><radialGradient id="radial-gradient-6" cx="-7476.41" cy="9486.61" r="65.49" gradientTransform="matrix(1, 0, 0, -1, 8272.7, 9930)" gradientUnits="userSpaceOnUse"><stop offset="0.13" stop-color="#fff44f"/><stop offset="0.25" stop-color="#ffdc3e"/><stop offset="0.51" stop-color="#ff9d12"/><stop offset="0.53" stop-color="#ff980e"/></radialGradient><radialGradient id="radial-gradient-7" cx="-7497.31" cy="9405.53" r="43.04" gradientTransform="matrix(1, 0, 0, -1, 8272.7, 9930)" gradientUnits="userSpaceOnUse"><stop offset="0.35" stop-color="#3a8ee6"/><stop offset="0.47" stop-color="#5c79f0"/><stop offset="0.67" stop-color="#9059ff"/><stop offset="1" stop-color="#c139e6"/></radialGradient><radialGradient id="radial-gradient-8" cx="-7557.72" cy="9392.26" r="22.82" gradientTransform="matrix(0.97, -0.23, -0.28, -1.14, 10719.3, 9405.77)" gradientUnits="userSpaceOnUse"><stop offset="0.21" stop-color="#9059ff" stop-opacity="0"/><stop offset="0.28" stop-color="#8c4ff3" stop-opacity="0.06"/><stop offset="0.75" stop-color="#7716a8" stop-opacity="0.45"/><stop offset="0.97" stop-color="#6e008b" stop-opacity="0.6"/></radialGradient><radialGradient id="radial-gradient-9" cx="-7488.45" cy="9469.8" r="30.96" gradientTransform="matrix(1, 0, 0, -1, 8272.7, 9930)" gradientUnits="userSpaceOnUse"><stop offset="0" stop-color="#ffe226"/><stop offset="0.12" stop-color="#ffdb27"/><stop offset="0.29" stop-color="#ffc82a"/><stop offset="0.5" stop-color="#ffa930"/><stop offset="0.73" stop-color="#ff7e37"/><stop offset="0.79" stop-color="#ff7139"/></radialGradient><radialGradient id="radial-gradient-10" cx="-7464.12" cy="9489.44" r="132.11" gradientTransform="matrix(1, 0, 0, -1, 8272.7, 9930)" gradientUnits="userSpaceOnUse"><stop offset="0.11" stop-color="#fff44f"/><stop offset="0.46" stop-color="#ff980e"/><stop offset="0.62" stop-color="#ff5634"/><stop offset="0.72" stop-color="#ff3647"/><stop offset="0.9" stop-color="#e31587"/></radialGradient><radialGradient id="radial-gradient-11" cx="-7632.12" cy="10365.21" r="96.78" gradientTransform="matrix(0.1, 1, 0.65, -0.07, -5169.66, 8757.06)" gradientUnits="userSpaceOnUse"><stop offset="0" stop-color="#fff44f"/><stop offset="0.06" stop-color="#ffe847"/><stop offset="0.17" stop-color="#ffc830"/><stop offset="0.3" stop-color="#ff980e"/><stop offset="0.36" stop-color="#ff8b16"/><stop offset="0.46" stop-color="#ff672a"/><stop offset="0.57" stop-color="#ff3647"/><stop offset="0.74" stop-color="#e31587"/></radialGradient><radialGradient id="radial-gradient-12" cx="-7489.18" cy="9458.33" r="82.48" gradientTransform="matrix(1, 0, 0, -1, 8272.7, 9930)" gradientUnits="userSpaceOnUse"><stop offset="0.14" stop-color="#fff44f"/><stop offset="0.48" stop-color="#ff980e"/><stop offset="0.59" stop-color="#ff5634"/><stop offset="0.66" stop-color="#ff3647"/><stop offset="0.9" stop-color="#e31587"/></radialGradient><radialGradient id="radial-gradient-13" cx="-7467.41" cy="9453.5" r="90.27" gradientTransform="matrix(1, 0, 0, -1, 8272.7, 9930)" gradientUnits="userSpaceOnUse"><stop offset="0.09" stop-color="#fff44f"/><stop offset="0.23" stop-color="#ffe141"/><stop offset="0.51" stop-color="#ffaf1e"/><stop offset="0.63" stop-color="#ff980e"/></radialGradient><linearGradient id="linear-gradient-10" x1="523.17" y1="938.54" x2="461.92" y2="877.3" gradientTransform="matrix(1, 0, 0, -1, 297.7, 1406)" gradientUnits="userSpaceOnUse"><stop offset="0.17" stop-color="#fff44f" stop-opacity="0.8"/><stop offset="0.27" stop-color="#fff44f" stop-opacity="0.63"/><stop offset="0.49" stop-color="#fff44f" stop-opacity="0.22"/><stop offset="0.6" stop-color="#fff44f" stop-opacity="0"/></linearGradient><clipPath id="clip-path-10"><circle class="cls-1" cx="604.95" cy="217.83" r="33.69"/></clipPath><clipPath id="clip-path-11"><polygon class="cls-1" points="571.26 251.53 603.34 251.53 618.22 236.64 618.22 225.49 591.69 225.49 571.26 190.45 571.26 251.53"/></clipPath><linearGradient id="linear-gradient-11" x1="328.85" y1="1197.85" x2="334.48" y2="1173.23" xlink:href="#linear-gradient-4"/><clipPath id="clip-path-12"><polygon class="cls-1" points="604.96 202.51 618.22 225.49 603.34 251.53 638.65 251.53 638.65 202.51 604.96 202.51"/></clipPath><linearGradient id="linear-gradient-12" x1="293.43" y1="1188.2" x2="313.53" y2="1199.94" xlink:href="#linear-gradient-2"/><clipPath id="clip-path-14"><polygon class="cls-1" points="576.61 184.14 576.61 199.58 591.69 225.49 604.96 202.51 638.65 202.51 638.65 184.14 576.61 184.14"/></clipPath><linearGradient id="linear-gradient-13" x1="324.65" y1="1153.93" x2="302.31" y2="1167.02" xlink:href="#linear-gradient-3"/><linearGradient id="linear-gradient-14" x1="177.33" y1="800.48" x2="177.33" y2="891.02" gradientTransform="matrix(1, 0, 0, -1, -23.75, 1342.77)" gradientUnits="userSpaceOnUse"><stop offset="0" stop-color="#bdbdbd"/><stop offset="1" stop-color="#fff"/></linearGradient><radialGradient id="radial-gradient-14" cx="195.79" cy="868.21" r="41.72" gradientTransform="matrix(1.08, 0, 0, -1.08, -58.54, 1432.65)" gradientUnits="userSpaceOnUse"><stop offset="0" stop-color="#06c2e7"/><stop offset="0.25" stop-color="#0db8ec"/><stop offset="0.5" stop-color="#12aef1"/><stop offset="0.75" stop-color="#1f86f9"/><stop offset="1" stop-color="#107ddd"/></radialGradient><linearGradient id="linear-gradient-15" x1="1007.65" y1="-706.37" x2="1007.65" y2="-733.97" gradientTransform="translate(-40.91 1276.92) rotate(0.04)" xlink:href="#linear-gradient"/><linearGradient id="linear-gradient-16" x1="663.74" y1="917" x2="657.01" y2="910.51" gradientTransform="matrix(0.83, -0.56, -0.56, -0.83, 934.38, 1680.36)" xlink:href="#linear-gradient-9"/><radialGradient id="radial-gradient-15" cx="-7311.57" cy="9441.37" r="8.45" gradientTransform="matrix(0.83, -0.56, -0.56, -0.83, 12320.53, 4252.27)" xlink:href="#radial-gradient-4"/><radialGradient id="radial-gradient-16" cx="-7314.66" cy="9437.91" r="8.45" gradientTransform="matrix(0.83, -0.56, -0.56, -0.83, 12320.53, 4252.27)" xlink:href="#radial-gradient-5"/><radialGradient id="radial-gradient-17" cx="-7313.64" cy="9443.29" r="6.12" gradientTransform="matrix(0.83, -0.56, -0.56, -0.83, 12320.53, 4252.27)" xlink:href="#radial-gradient-6"/><radialGradient id="radial-gradient-18" cx="-7315.59" cy="9435.71" r="4.02" gradientTransform="matrix(0.83, -0.56, -0.56, -0.83, 12320.53, 4252.27)" xlink:href="#radial-gradient-7"/><radialGradient id="radial-gradient-19" cx="-7393.77" cy="9360.2" r="2.13" gradientTransform="matrix(0.67, -0.74, -0.87, -0.79, 14050.12, 2444.18)" xlink:href="#radial-gradient-8"/><radialGradient id="radial-gradient-20" cx="-7314.77" cy="9441.71" r="2.89" gradientTransform="matrix(0.83, -0.56, -0.56, -0.83, 12320.53, 4252.27)" xlink:href="#radial-gradient-9"/><radialGradient id="radial-gradient-21" cx="-7312.49" cy="9443.55" r="12.35" gradientTransform="matrix(0.83, -0.56, -0.56, -0.83, 12320.53, 4252.27)" xlink:href="#radial-gradient-10"/><radialGradient id="radial-gradient-22" cx="-7576.14" cy="10603.87" r="9.05" gradientTransform="matrix(0.65, 0.76, 0.5, -0.42, 540.73, 10833.24)" xlink:href="#radial-gradient-11"/><radialGradient id="radial-gradient-23" cx="-7314.83" cy="9440.64" r="7.71" gradientTransform="matrix(0.83, -0.56, -0.56, -0.83, 12320.53, 4252.27)" xlink:href="#radial-gradient-12"/><radialGradient id="radial-gradient-24" cx="-7312.8" cy="9440.19" r="8.44" gradientTransform="matrix(0.83, -0.56, -0.56, -0.83, 12320.53, 4252.27)" xlink:href="#radial-gradient-13"/><linearGradient id="linear-gradient-17" x1="663.66" y1="917.04" x2="657.93" y2="911.31" gradientTransform="matrix(0.83, -0.56, -0.56, -0.83, 934.38, 1680.36)" xlink:href="#linear-gradient-10"/><linearGradient id="linear-gradient-18" x1="1230.37" y1="-586.33" x2="1230.37" y2="-615.67" gradientTransform="matrix(0.72, -0.69, 0.69, 0.72, 493.62, 1840.21)" xlink:href="#linear-gradient-8"/><linearGradient id="linear-gradient-19" x1="597.45" y1="663.52" x2="645.29" y2="663.52" gradientUnits="userSpaceOnUse"><stop offset="0" stop-color="#c57db2"/><stop offset="1" stop-color="#56bc80"/></linearGradient><linearGradient id="linear-gradient-20" x1="744" y1="498.7" x2="830.62" y2="498.7" xlink:href="#linear-gradient-19"/><linearGradient id="linear-gradient-21" x1="107.78" y1="500.16" x2="198.14" y2="500.16" xlink:href="#linear-gradient-19"/><linearGradient id="linear-gradient-22" x1="355.57" y1="1011.73" x2="412.41" y2="1011.73" xlink:href="#linear-gradient-19"/><linearGradient id="linear-gradient-23" x1="169.06" y1="769.78" x2="359.32" y2="769.78" xlink:href="#linear-gradient-19"/><linearGradient id="linear-gradient-24" x1="412.4" y1="459.36" x2="635.02" y2="459.36" xlink:href="#linear-gradient-19"/><linearGradient id="linear-gradient-25" x1="756.09" y1="675.05" x2="1092.15" y2="675.05" xlink:href="#linear-gradient-19"/><linearGradient id="linear-gradient-26" x1="406.76" y1="926.54" x2="445.15" y2="926.54" xlink:href="#linear-gradient-19"/><linearGradient id="linear-gradient-27" x1="760.57" y1="735.24" x2="795.71" y2="735.24" xlink:href="#linear-gradient-19"/><linearGradient id="linear-gradient-28" x1="668.55" y1="914.29" x2="744.09" y2="914.29" xlink:href="#linear-gradient-19"/><linearGradient id="linear-gradient-29" x1="609.99" y1="897.44" x2="656.62" y2="897.44" xlink:href="#linear-gradient-19"/></defs><g class="cls-2"><g id="Layer_1" data-name="Layer 1"><path class="cls-3" d="M128.93,789.69c-22.79-57.61-9-132.7,43.4-165.71,22-13.84,49.93-20.53,64.83-41.82,33.06-52.56-30.69-147.57-22.66-216C211,250,252,198.31,393.91,188.13s233.52,74.94,265.74,93.75C730.26,323.1,822.13,279.2,901,300.64,971.17,319.7,1020.49,396.19,1008.9,468c-9.45,58.49-53.5,112.47-41.85,170.56,30.9,106,199.69,160.38,60,285.72-73,51.6-168,33.79-252.07,38.61-60.37,3.67-119.25,19.28-178.35,32.12-120.09,32-253.31,27.64-339.43-71.71C209.44,879.05,154.62,854.63,128.93,789.69Z"/><path class="cls-4" d="M645,664.83c-2.22,2.46-41.81,1.84-46.82-.31s16.07-3,24.07-3.71a46.28,46.28,0,0,1,10.52.23C635,661.36,647.25,662.36,645,664.83Z"/><rect class="cls-5" x="523.05" y="251.53" width="48.63" height="48.63" rx="17.08"/><path class="cls-6" d="M560.19,332.32c-8.56.09-17.11.38-25.66.69,1.05-13.35,1.89-26.72,2.91-40.08q10.06.12,20.14.2C558.31,306.21,559.21,319.26,560.19,332.32Z"/><path class="cls-6" d="M530.1,306.05h4.43c10,0,27.73-8.11,27.73-18.1v-9.4a18.1,18.1,0,0,0-18.1-18.1h-4.44a18.1,18.1,0,0,0-18.1,18.1V288C521.62,297.94,520.1,306.05,530.1,306.05Z"/><rect class="cls-5" x="514.71" y="257.23" width="34.93" height="18.94" rx="9.47" transform="translate(-48.12 134.04) rotate(-13.74)"/><rect class="cls-5" x="544.43" y="257.95" width="23.82" height="18.94" rx="9.47" transform="translate(102.76 -151.26) rotate(17.04)"/><path class="cls-6" d="M556.24,285.23a7.83,7.83,0,0,0,8.69,8.1,9.48,9.48,0,0,0,8.89-9.32,7.83,7.83,0,0,0-8.69-8.1A9.45,9.45,0,0,0,556.24,285.23Z"/><path class="cls-7" d="M442,376.88l-1.4,7-1.4,7,68.9,3.23,17.35-21.9c5.49-7.28,9.4-13.65,4.55-20.37h0a14,14,0,0,0-20.71-2.08l-14.41,26.06Z"/><path class="cls-8" d="M421.69,377.41h0a7.16,7.16,0,0,0,4.32,8.86l9.8,3.68a7.17,7.17,0,0,0,9.36-4.57l.34-1.09a7.17,7.17,0,0,0-5.07-9.1l-10.14-2.58A7.16,7.16,0,0,0,421.69,377.41Z"/><path class="cls-9" d="M448,383.33c-4.57-3.57-20.21-14-23.87-16.53a2.18,2.18,0,0,0-2.28-.13l-8.27,4.47a2.19,2.19,0,0,0-.31,3.67l25.67,18.79a2.19,2.19,0,0,0,2.91-.21l6.37-6.82A2.17,2.17,0,0,0,448,383.33Z"/><path class="cls-10" d="M447.42,384.29c-3.38-2.76-21.15-14.93-24-16.85a.72.72,0,0,0-.76,0l-8.28,5.06a.7.7,0,0,0-.05,1.16l25.38,18.8a.73.73,0,0,0,.93-.08l6.79-7.05A.68.68,0,0,0,447.42,384.29Z"/><g class="cls-11"><path class="cls-12" d="M427.93,374.76l-.35,3.79,1.63,0,1.41-2.23,3.32,0-.21-1.54Z"/><path class="cls-13" d="M427.93,374.76l-.35,3.79,1.63,0,1.41-2.23,3.32,0-.21-1.54Z"/><path class="cls-14" d="M429.25,378.52l-1.42-2.5,0,0,1.41,2.48Z"/><path id="B" class="cls-15" d="M426.65,381.59l3.83-.07,1.65-1.81-.07-1.21-2.85,0-1.85-3.25Z"/><path class="cls-16" d="M426.65,381.59l3.83-.07,1.65-1.81-.07-1.21-2.85,0-1.85-3.25Z"/><path class="cls-17" d="M432,378.55l0,0-1.57,3h.05l1.55-3Z"/><g class="cls-18"><path class="cls-19" d="M430.62,376.3l1.44,2.2-1.58,3,4.15-.07-.69-5.17Z"/><path class="cls-20" d="M430.62,376.3l1.44,2.2-1.58,3,4.15-.07-.69-5.17Z"/></g><path class="cls-19" d="M430.62,376.3l1.44,2.2-1.58,3,4.15-.07-.69-5.17Z"/><path class="cls-20" d="M430.62,376.3l1.44,2.2-1.58,3,4.15-.07-.69-5.17Z"/><g class="cls-21"><path class="cls-12" d="M427.93,374.76l-.35,3.79,1.63,0,1.41-2.23,3.32,0-.21-1.54Z"/><path class="cls-13" d="M427.93,374.76l-.35,3.79,1.63,0,1.41-2.23,3.32,0-.21-1.54Z"/></g></g><g class="cls-11"><path class="cls-22" d="M430.62,376.3V377l3-.75Z"/></g><g class="cls-11"><g class="cls-23"><path id="B-2" data-name="B" class="cls-15" d="M426.65,381.59l3.83-.07,1.65-1.81-.07-1.21-2.85,0-1.85-3.25Z"/><path class="cls-16" d="M426.65,381.59l3.83-.07,1.65-1.81-.07-1.21-2.85,0-1.85-3.25Z"/></g></g><g class="cls-11"><path class="cls-24" d="M427.81,376.06l2.14,2.06-.74.41Z"/></g><g class="cls-11"><path class="cls-25" d="M430.49,381.51l.83-3.41.74.4Z"/></g><g class="cls-11"><path class="cls-26" d="M430.62,376.3a1.58,1.58,0,0,1,1.61,1.42,1.61,1.61,0,1,1-1.61-1.42Z"/><path class="cls-27" d="M430.62,376.58a1.22,1.22,0,1,1-1.27,1.17A1.25,1.25,0,0,1,430.62,376.58Z"/><path class="cls-28" d="M430.62,376.27a1.55,1.55,0,0,0-1.59,1.45v0a1.56,1.56,0,0,1,1.59-1.45l3.32,0v0Z"/><path class="cls-29" d="M432.06,378.5a1.64,1.64,0,0,1-2.85,0h0l-1.85-3.25v0l1.85,3.26a1.64,1.64,0,0,0,2.85,0h0v0Z"/><path class="cls-30" d="M430.65,376.3h0a1.58,1.58,0,0,1,1.6,1.42,1.56,1.56,0,0,1-1.56,1.62h0a1.55,1.55,0,0,0,1.58-1.62A1.58,1.58,0,0,0,430.65,376.3Z"/><path class="cls-31" d="M432.08,378.55a1.4,1.4,0,0,0,.06-1.23,1.4,1.4,0,0,1-.08,1.18h0l-1.58,3h.06Z"/><path class="cls-31" d="M430.6,374.78a3.53,3.53,0,0,1,3.53,2.94h0a3.57,3.57,0,0,0-7.05.06v0A3.52,3.52,0,0,1,430.6,374.78Z"/><path class="cls-14" d="M430.67,381.47a3.42,3.42,0,0,0,3.46-3.78v0a3.53,3.53,0,1,1-7.05.06v0a3.43,3.43,0,0,0,3.6,3.72Z"/></g><path class="cls-32" d="M447.42,384.29c-3.38-2.76-21.15-14.93-24-16.85a.72.72,0,0,0-.76,0l-8.28,5.06a.7.7,0,0,0-.05,1.16l25.38,18.8a.73.73,0,0,0,.93-.08l6.79-7.05A.68.68,0,0,0,447.42,384.29Z"/><path class="cls-8" d="M433.75,375.38h0a1.84,1.84,0,0,0,1.6,2l2.66.34c1.05.13,5.74,1,5.82-.06l0-.3c.08-1.05-4.49-3.58-5.55-3.6l-2.68-.05A1.84,1.84,0,0,0,433.75,375.38Z"/><path class="cls-33" d="M511.14,328.21l-13.1,32,29.75,11.86c1.59.64,3.52-.38,4.3-2.28l10.56-28.62c1.76-7.21.7-13.78-5.77-16.36l-9.23-3.68A12.78,12.78,0,0,0,511.14,328.21Z"/><path class="cls-34" d="M521.27,319.95H579a8.36,8.36,0,0,1,8.36,8.36v82.8a0,0,0,0,1,0,0H512.92a0,0,0,0,1,0,0V328.3A8.36,8.36,0,0,1,521.27,319.95Z"/><path class="cls-6" d="M598.3,442.44l6.58-.2,6.58-.2-2-69.55-9.57-19.63a13,13,0,0,0-18.59-5.27h0a13,13,0,0,0-3.22,19l13.61,17.14Z"/><path class="cls-6" d="M605.47,461.9h0a7,7,0,0,0,6.74-6.78l.25-10.14a7,7,0,0,0-7.16-7.12l-1.11,0a7,7,0,0,0-6.72,7.54l.86,10.11A7,7,0,0,0,605.47,461.9Z"/><path class="cls-34" d="M561.37,341.48,576,369.88l26.45-13.66a3.2,3.2,0,0,0,1-4.38l-13.1-25.35a11.72,11.72,0,0,0-15.79-5l-8.2,4.23A11.72,11.72,0,0,0,561.37,341.48Z"/><path id="path980" class="cls-35" d="M827.48,484c-1.88-4.53-5.7-9.43-8.69-11a45.25,45.25,0,0,1,4.39,13.16v.07c-4.9-12.22-13.21-17.15-20-27.88-.35-.55-.69-1.09-1-1.66-.2-.33-.35-.63-.48-.9a7.92,7.92,0,0,1-.65-1.72.12.12,0,0,0-.1-.11.11.11,0,0,0-.08,0h0l0,0,0,0c-10.9,6.38-14.59,18.18-14.93,24.09a21.65,21.65,0,0,0-11.93,4.6c-.36-.3-.74-.59-1.12-.85a20.17,20.17,0,0,1-.13-10.6,32.22,32.22,0,0,0-10.43,8.07h0c-1.72-2.18-1.6-9.36-1.5-10.86a7.19,7.19,0,0,0-1.45.77,31.15,31.15,0,0,0-4.24,3.63,37.68,37.68,0,0,0-4.05,4.86h0a36.54,36.54,0,0,0-5.82,13.14l-.06.28c-.08.39-.37,2.3-.42,2.71,0,0,0,.06,0,.1a41.38,41.38,0,0,0-.71,6v.23a43.37,43.37,0,0,0,86.1,7.33c.07-.56.13-1.11.2-1.68A44.61,44.61,0,0,0,827.48,484Zm-50,33.94c.2.1.39.21.6.3l0,0Zm45.68-31.67v0Z"/><path id="path982" class="cls-36" d="M827.48,484c-1.88-4.53-5.7-9.43-8.69-11a45.25,45.25,0,0,1,4.39,13.16v.08a39.23,39.23,0,0,1-1.35,29.27c-5,10.66-17,21.59-35.82,21.06-20.35-.57-38.27-15.67-41.62-35.45-.61-3.11,0-4.69.31-7.23a32.54,32.54,0,0,0-.7,6v.23a43.37,43.37,0,0,0,86.1,7.33c.07-.56.13-1.11.2-1.68A44.61,44.61,0,0,0,827.48,484Z"/><path id="path984" class="cls-37" d="M827.48,484c-1.88-4.53-5.7-9.43-8.69-11a45.25,45.25,0,0,1,4.39,13.16v.08a39.23,39.23,0,0,1-1.35,29.27c-5,10.66-17,21.59-35.82,21.06-20.35-.57-38.27-15.67-41.62-35.45-.61-3.11,0-4.69.31-7.23a32.54,32.54,0,0,0-.7,6v.23a43.37,43.37,0,0,0,86.1,7.33c.07-.56.13-1.11.2-1.68A44.61,44.61,0,0,0,827.48,484Z"/><path id="path986" class="cls-38" d="M806.41,489.08a2.69,2.69,0,0,1,.27.2,23.42,23.42,0,0,0-4-5.26c-13.47-13.48-3.53-29.22-1.85-30l0,0c-10.9,6.38-14.59,18.18-14.93,24.09.5,0,1-.08,1.52-.08A21.89,21.89,0,0,1,806.41,489.08Z"/><path id="path988" class="cls-39" d="M787.44,491.77c-.07,1.08-3.88,4.8-5.21,4.8-12.33,0-14.34,7.46-14.34,7.46.55,6.28,4.93,11.45,10.22,14.19l.73.35c.42.19.85.36,1.27.52a19.44,19.44,0,0,0,5.64,1.09c21.62,1,25.8-25.85,10.21-33.64a15,15,0,0,1,10.45,2.54,21.89,21.89,0,0,0-19-11.1c-.51,0-1,0-1.52.08a21.65,21.65,0,0,0-11.93,4.6c.66.56,1.4,1.31,3,2.86C779.88,488.41,787.42,491.42,787.44,491.77Z"/><path id="path990" class="cls-40" d="M787.44,491.77c-.07,1.08-3.88,4.8-5.21,4.8-12.33,0-14.34,7.46-14.34,7.46.55,6.28,4.93,11.45,10.22,14.19l.73.35c.42.19.85.36,1.27.52a19.44,19.44,0,0,0,5.64,1.09c21.62,1,25.8-25.85,10.21-33.64a15,15,0,0,1,10.45,2.54,21.89,21.89,0,0,0-19-11.1c-.51,0-1,0-1.52.08a21.65,21.65,0,0,0-11.93,4.6c.66.56,1.4,1.31,3,2.86C779.88,488.41,787.42,491.42,787.44,491.77Z"/><path id="path992" class="cls-41" d="M771.93,481.22c.36.22.64.42.9.59a20.07,20.07,0,0,1-.12-10.6,32.16,32.16,0,0,0-10.44,8.07C762.48,479.27,768.77,479.16,771.93,481.22Z"/><path id="path994" class="cls-42" d="M744.4,501.13c3.35,19.78,21.27,34.88,41.61,35.45,18.83.53,30.86-10.4,35.83-21.06a39.28,39.28,0,0,0,1.35-29.27v0s0,0,0,0v.07c1.54,10.05-3.57,19.78-11.56,26.36l0,0c-15.56,12.68-30.45,7.65-33.47,5.6l-.63-.32c-9.07-4.33-12.82-12.6-12-19.69a11.13,11.13,0,0,1-10.27-6.46,16.34,16.34,0,0,1,15.94-.64,21.6,21.6,0,0,0,16.28.64c0-.35-7.56-3.36-10.5-6.25-1.57-1.55-2.32-2.3-3-2.86a13.19,13.19,0,0,0-1.12-.85l-.89-.59c-3.17-2.06-9.46-1.94-9.67-1.94h0c-1.71-2.18-1.59-9.36-1.5-10.86a7.39,7.39,0,0,0-1.44.77,31.25,31.25,0,0,0-4.24,3.63,37.74,37.74,0,0,0-4.07,4.85h0a36.54,36.54,0,0,0-5.82,13.14C745.18,490.91,743.64,497.64,744.4,501.13Z"/><path id="path996" class="cls-43" d="M802.66,484a23.61,23.61,0,0,1,4,5.26,7.76,7.76,0,0,1,.65.53c9.84,9.07,4.68,21.88,4.3,22.79,8-6.58,13.09-16.31,11.56-26.35-4.91-12.23-13.22-17.16-20-27.89-.35-.55-.69-1.09-1-1.66-.2-.33-.35-.63-.48-.9a7.92,7.92,0,0,1-.65-1.72.12.12,0,0,0-.1-.11.11.11,0,0,0-.08,0h0l0,0C799.12,454.8,789.18,470.54,802.66,484Z"/><path id="path998" class="cls-44" d="M807.33,489.81c-.19-.17-.41-.35-.65-.53l-.27-.2A15,15,0,0,0,796,486.54c15.6,7.8,11.41,34.65-10.2,33.64a19.38,19.38,0,0,1-5.64-1.09c-.43-.16-.85-.33-1.28-.52l-.73-.35,0,0c3,2,17.9,7.08,33.47-5.6l0,0C812,511.68,817.16,498.87,807.33,489.81Z"/><path id="path1000" class="cls-45" d="M767.89,504s2-7.46,14.34-7.46c1.33,0,5.14-3.72,5.21-4.8a21.6,21.6,0,0,1-16.28-.64,16.34,16.34,0,0,0-15.94.64,11.12,11.12,0,0,0,10.27,6.46c-.8,7.09,2.94,15.36,12,19.69l.6.3C772.81,515.48,768.44,510.31,767.89,504Z"/><path id="path1002" class="cls-46" d="M827.48,484c-1.88-4.53-5.7-9.43-8.69-11a45.25,45.25,0,0,1,4.39,13.16v.07c-4.9-12.22-13.21-17.15-20-27.88-.35-.55-.69-1.09-1-1.66-.2-.33-.35-.63-.48-.9a7.92,7.92,0,0,1-.65-1.72.12.12,0,0,0-.1-.11.11.11,0,0,0-.08,0h0l0,0,0,0c-10.9,6.38-14.59,18.18-14.93,24.09.5,0,1-.08,1.52-.08a21.89,21.89,0,0,1,19,11.1A15,15,0,0,0,796,486.54c15.59,7.8,11.41,34.65-10.21,33.64a19.44,19.44,0,0,1-5.64-1.09c-.42-.16-.85-.33-1.27-.52l-.73-.35,0,0-.63-.32c.2.1.39.21.6.3-5.3-2.74-9.67-7.91-10.22-14.19,0,0,2-7.46,14.34-7.46,1.33,0,5.14-3.72,5.21-4.8,0-.35-7.56-3.36-10.51-6.25-1.57-1.55-2.31-2.3-3-2.86-.36-.3-.74-.59-1.12-.85a20.17,20.17,0,0,1-.13-10.6,32.22,32.22,0,0,0-10.43,8.07h0c-1.72-2.18-1.6-9.36-1.5-10.86a7.19,7.19,0,0,0-1.45.77,31.15,31.15,0,0,0-4.24,3.63,37.68,37.68,0,0,0-4.05,4.86h0a36.54,36.54,0,0,0-5.82,13.14l-.06.28c-.08.39-.44,2.32-.5,2.74h0a51.12,51.12,0,0,0-.64,6v.23a43.37,43.37,0,0,0,86.1,7.33c.07-.56.13-1.11.2-1.68A44.61,44.61,0,0,0,827.48,484Zm-4.3,2.23v0Z"/><g class="cls-47"><path class="cls-12" d="M576.61,184.14v41.35H591.7l13.25-23h33.7V184.14Z"/><path id="B-3" data-name="B" class="cls-15" d="M571.26,251.53h32.08l14.88-14.89V225.49H591.69l-20.43-35Z"/><g class="cls-48"><path class="cls-19" d="M605,202.52l13.27,23-14.88,26h35.31v-49Z"/><path class="cls-49" d="M605,202.52l13.27,23-14.88,26h35.31v-49Z"/></g><path class="cls-19" d="M605,202.52l13.27,23-14.88,26h35.31v-49Z"/><g class="cls-50"><path class="cls-12" d="M576.61,184.14v41.35H591.7l13.25-23h33.7V184.14Z"/><path class="cls-51" d="M576.61,184.14v41.35H591.7l13.25-23h33.7V184.14Z"/></g></g><g class="cls-47"><g class="cls-52"><path id="B-4" data-name="B" class="cls-15" d="M571.26,251.53h32.08l14.88-14.89V225.49H591.69l-20.43-35Z"/><path class="cls-53" d="M571.26,251.53h32.08l14.88-14.89V225.49H591.69l-20.43-35Z"/></g></g><g class="cls-47"><circle class="cls-26" cx="604.95" cy="217.83" r="15.32"/><circle class="cls-27" cx="604.95" cy="217.83" r="12.25"/><path class="cls-31" d="M618.36,226a15.24,15.24,0,0,0,2-7.65,15.48,15.48,0,0,0-.71-4.63,15.51,15.51,0,0,1,.57,4.11,15.17,15.17,0,0,1-2.06,7.65h0l-14.88,26h.44Z"/><path class="cls-31" d="M605,184.52a33.7,33.7,0,0,1,33.7,33.5v-.19a33.7,33.7,0,0,0-67.39,0V218A33.7,33.7,0,0,1,605,184.52Z"/></g><g id="layer1"><g id="g2858"><path id="path2226" class="cls-54" d="M196.41,503.67c0,23.12-19.45,41.85-43.45,41.85s-43.46-18.73-43.46-41.85S129,461.83,153,461.83,196.41,480.56,196.41,503.67Z"/><path id="path826" class="cls-55" d="M198.07,500A45.11,45.11,0,0,1,153,545.09h0a45.11,45.11,0,0,1,0-90.22h0A45.11,45.11,0,0,1,198.07,500Z"/><path id="circle828" class="cls-56" d="M194.53,500A41.58,41.58,0,0,1,153,541.56h0A41.59,41.59,0,0,1,111.38,500h0A41.59,41.59,0,0,1,153,458.4h0A41.58,41.58,0,0,1,194.53,500Z"/><path id="rect830" class="cls-57" d="M153,460.57a.61.61,0,0,0-.61.61v7a.61.61,0,1,0,1.21,0v-7A.6.6,0,0,0,153,460.57Zm-4,.25h-.12a.61.61,0,0,0-.54.67l.3,2.92a.61.61,0,0,0,1.21-.12l-.31-2.93A.61.61,0,0,0,149,460.82Zm8,0a.59.59,0,0,0-.54.54l-.31,2.92a.61.61,0,0,0,.54.67.62.62,0,0,0,.67-.54l.3-2.93a.59.59,0,0,0-.54-.66Zm-12,.58-.12,0a.61.61,0,0,0-.47.72l1.45,6.84a.6.6,0,0,0,1.18-.26l-1.45-6.84a.61.61,0,0,0-.59-.48Zm16.1,0a.6.6,0,0,0-.59.48L159,468.74a.61.61,0,0,0,1.19.25l1.45-6.84a.61.61,0,0,0-.46-.72Zm-20,1.09a.5.5,0,0,0-.24,0,.6.6,0,0,0-.39.76l.91,2.8a.61.61,0,1,0,1.15-.38l-.91-2.79a.59.59,0,0,0-.52-.42Zm23.86,0a.59.59,0,0,0-.52.42l-.91,2.8a.6.6,0,0,0,.38.76.62.62,0,0,0,.77-.39l.91-2.8a.6.6,0,0,0-.39-.76.5.5,0,0,0-.24,0Zm-27.7,1.41a.69.69,0,0,0-.24.05.61.61,0,0,0-.31.8l2.84,6.39a.61.61,0,0,0,.8.31.6.6,0,0,0,.31-.8l-2.84-6.39A.59.59,0,0,0,137.19,463.92Zm31.59,0a.6.6,0,0,0-.57.36l-2.85,6.38a.61.61,0,0,0,1.11.5l2.85-6.39a.6.6,0,0,0-.31-.8A.59.59,0,0,0,168.78,463.94Zm-35.16,1.86a.63.63,0,0,0-.35.09.59.59,0,0,0-.22.82l1.47,2.55a.61.61,0,1,0,1-.61l-1.47-2.54a.63.63,0,0,0-.48-.31Zm38.68,0a.65.65,0,0,0-.49.31l-1.47,2.54a.61.61,0,0,0,.23.83.59.59,0,0,0,.82-.22l1.47-2.55a.59.59,0,0,0-.22-.82.62.62,0,0,0-.34-.09ZM130.15,468a.59.59,0,0,0-.33.11.62.62,0,0,0-.14.85l4.11,5.66a.6.6,0,0,0,.84.13.59.59,0,0,0,.14-.84l-4.11-5.66a.58.58,0,0,0-.51-.25Zm45.66,0a.61.61,0,0,0-.52.25l-4.11,5.65a.61.61,0,1,0,1,.71l4.11-5.65a.61.61,0,0,0-.13-.85.59.59,0,0,0-.33-.11Zm-48.75,2.56a.61.61,0,0,0-.49,1l2,2.19a.61.61,0,0,0,.86.05.6.6,0,0,0,0-.86l-2-2.19a.62.62,0,0,0-.41-.2Zm51.8,0a.62.62,0,0,0-.42.2l-2,2.18a.6.6,0,0,0,0,.86.62.62,0,0,0,.86,0l2-2.19a.61.61,0,0,0,0-.86.59.59,0,0,0-.44-.15Zm-54.77,2.84a.62.62,0,0,0-.38,1.06l5.2,4.68a.61.61,0,0,0,.86,0,.6.6,0,0,0-.05-.85l-5.2-4.68a.58.58,0,0,0-.43-.15Zm57.76,0a.59.59,0,0,0-.44.15l-5.2,4.67a.61.61,0,0,0,.81.91l5.2-4.68a.6.6,0,0,0,.05-.85A.58.58,0,0,0,181.85,473.44Zm-60.23,3.15a.58.58,0,0,0-.51.25.61.61,0,0,0,.13.85l2.38,1.72a.61.61,0,0,0,.85-.13.62.62,0,0,0-.14-.85L122,476.71a.54.54,0,0,0-.33-.12Zm62.69,0a.61.61,0,0,0-.33.12l-2.38,1.72a.61.61,0,0,0,.71,1l2.38-1.73a.61.61,0,0,0,.13-.85.58.58,0,0,0-.51-.25Zm-65,3.37a.59.59,0,0,0-.48.3.61.61,0,0,0,.22.83l6.06,3.49a.59.59,0,0,0,.82-.22.61.61,0,0,0-.22-.83l-6-3.49a.55.55,0,0,0-.35-.08Zm67.29,0a.54.54,0,0,0-.34.08l-6.06,3.49a.61.61,0,0,0,.61,1.05l6.05-3.49a.62.62,0,0,0,.23-.83.61.61,0,0,0-.49-.3Zm-69,3.6a.61.61,0,0,0-.57.36.6.6,0,0,0,.31.8l2.68,1.2a.6.6,0,1,0,.5-1.1l-2.69-1.2A.6.6,0,0,0,117.57,483.58Zm70.79,0a.69.69,0,0,0-.24.05l-2.68,1.2a.6.6,0,0,0-.31.8.62.62,0,0,0,.8.31l2.69-1.2a.6.6,0,0,0,.3-.8.58.58,0,0,0-.56-.36ZM116,487.36a.6.6,0,0,0-.52.41.61.61,0,0,0,.39.77l6.64,2.16a.61.61,0,1,0,.38-1.15l-6.65-2.17a.65.65,0,0,0-.24,0Zm73.9,0a.5.5,0,0,0-.24,0L183,489.57a.61.61,0,1,0,.38,1.15l6.65-2.16a.6.6,0,0,0,.39-.76.61.61,0,0,0-.53-.42ZM115,491.32a.59.59,0,0,0-.59.48.61.61,0,0,0,.46.72l2.88.61a.61.61,0,1,0,.25-1.19l-2.87-.61Zm75.83,0h-.12l-2.88.62a.59.59,0,0,0-.46.71.6.6,0,0,0,.71.47l2.88-.61a.61.61,0,0,0-.13-1.2Zm-76.56,4a.61.61,0,0,0-.54.54.59.59,0,0,0,.54.66l7,.74a.61.61,0,0,0,.67-.54.62.62,0,0,0-.54-.67l-7-.73Zm77.3.05h-.12l-7,.73a.6.6,0,1,0,.13,1.2l7-.72a.6.6,0,0,0,.54-.67.61.61,0,0,0-.54-.54Zm-77.42,4a.61.61,0,0,0,0,1.21h2.94a.61.61,0,1,0,0-1.21Zm74.59,0a.61.61,0,1,0,0,1.21h2.94a.61.61,0,1,0,0-1.21Zm-67.4,3.3h-.12l-7,.73a.6.6,0,1,0,.13,1.2l6.95-.72a.61.61,0,0,0,0-1.21Zm63.15,0a.61.61,0,0,0-.54.54.6.6,0,0,0,.54.67l6.95.73a.6.6,0,1,0,.13-1.2l-7-.74Zm-66.62,4.1h-.12l-2.88.61a.6.6,0,0,0-.46.72.61.61,0,0,0,.72.47L118,508a.61.61,0,0,0-.13-1.2Zm70.09,0a.63.63,0,0,0-.6.48.61.61,0,0,0,.47.72l2.88.61a.6.6,0,0,0,.72-.46.61.61,0,0,0-.47-.72l-2.88-.61-.12,0Zm-65.24,2.39a.5.5,0,0,0-.24,0l-6.65,2.16a.61.61,0,0,0-.39.76.59.59,0,0,0,.76.39l6.65-2.16a.59.59,0,0,0,.39-.76.61.61,0,0,0-.52-.42Zm60.39,0a.61.61,0,0,0-.14,1.18l6.65,2.17a.62.62,0,0,0,.77-.39.6.6,0,0,0-.39-.76l-6.65-2.17a.66.66,0,0,0-.24,0ZM120.22,514a.52.52,0,0,0-.24,0l-2.68,1.19a.61.61,0,1,0,.49,1.11l2.69-1.19a.61.61,0,0,0,.3-.8.58.58,0,0,0-.56-.36Zm65.46,0a.59.59,0,0,0-.56.36.6.6,0,0,0,.31.8l2.68,1.2a.61.61,0,0,0,.5-1.11l-2.69-1.2a.69.69,0,0,0-.24,0Zm-60.23,1.31a.57.57,0,0,0-.34.08l-6.06,3.5a.61.61,0,1,0,.61,1l6-3.5a.61.61,0,0,0-.26-1.13Zm55,0a.61.61,0,0,0-.26,1.13l6.06,3.5a.61.61,0,0,0,.83-.22.62.62,0,0,0-.23-.83l-6.05-3.5a.62.62,0,0,0-.35-.08Zm-56.52,5.13a.58.58,0,0,0-.33.12l-2.38,1.73a.59.59,0,0,0-.14.84.62.62,0,0,0,.85.14l2.38-1.73a.61.61,0,0,0-.38-1.1Zm58,0a.61.61,0,0,0-.38,1.1l2.38,1.73a.6.6,0,0,0,.85-.14.59.59,0,0,0-.14-.84l-2.38-1.73a.58.58,0,0,0-.33-.12Zm-52.63.21a.59.59,0,0,0-.44.16l-5.19,4.67a.61.61,0,0,0,0,.86.6.6,0,0,0,.86,0l5.2-4.67a.6.6,0,0,0,0-.86A.62.62,0,0,0,129.33,520.64Zm47.24,0a.58.58,0,0,0-.42.2.59.59,0,0,0,0,.85l5.2,4.68a.6.6,0,0,0,.86,0,.61.61,0,0,0-.05-.86l-5.2-4.68a.58.58,0,0,0-.43-.15Zm-42.3,4.44a.61.61,0,0,0-.52.25L129.64,531a.61.61,0,1,0,1,.72l4.11-5.66a.59.59,0,0,0-.13-.84A.54.54,0,0,0,134.27,525.1Zm37.35,0a.7.7,0,0,0-.34.12.61.61,0,0,0-.13.85l4.1,5.66a.61.61,0,0,0,1-.72l-4.1-5.65a.64.64,0,0,0-.51-.26ZM129,526a.58.58,0,0,0-.42.2l-2,2.18a.6.6,0,0,0,0,.86.61.61,0,0,0,.86,0l2-2.18a.61.61,0,0,0-.05-.86A.58.58,0,0,0,129,526Zm48,0a.56.56,0,0,0-.44.16.6.6,0,0,0-.05.85l2,2.19a.6.6,0,0,0,.86,0,.59.59,0,0,0,0-.85l-2-2.19a.62.62,0,0,0-.41-.2Zm-37,2.43a.6.6,0,0,0-.57.35l-2.84,6.39a.6.6,0,0,0,.3.8.6.6,0,0,0,.8-.31l2.85-6.38a.6.6,0,0,0-.31-.8.46.46,0,0,0-.23-.05Zm25.86,0a.53.53,0,0,0-.24.06.61.61,0,0,0-.31.8l2.84,6.38a.6.6,0,0,0,.8.31.6.6,0,0,0,.31-.8l-2.84-6.39a.61.61,0,0,0-.56-.36Zm-30.87,2a.61.61,0,0,0-.48.3l-1.47,2.55a.6.6,0,1,0,1,.6l1.47-2.54a.61.61,0,0,0-.22-.83.62.62,0,0,0-.35-.08Zm35.91,0a.57.57,0,0,0-.34.08.61.61,0,0,0-.23.83l1.47,2.55a.62.62,0,0,0,.83.22.61.61,0,0,0,.22-.83l-1.47-2.55a.59.59,0,0,0-.48-.3Zm-24.56.09a.62.62,0,0,0-.6.48l-1.45,6.84a.61.61,0,1,0,1.19.25l1.45-6.84a.61.61,0,0,0-.47-.72Zm13.19,0h-.12a.61.61,0,0,0-.47.72l1.45,6.84a.61.61,0,0,0,1.19-.25L160.14,531a.6.6,0,0,0-.6-.48Zm-6.58.69a.6.6,0,0,0-.61.6v7a.61.61,0,1,0,1.21,0v-7A.6.6,0,0,0,153,531.19Zm-11.13,2.25a.59.59,0,0,0-.52.42l-.91,2.8a.6.6,0,0,0,1.15.37l.91-2.79a.62.62,0,0,0-.39-.77l-.24,0Zm22.25,0a.65.65,0,0,0-.24,0,.62.62,0,0,0-.39.77l.91,2.79a.6.6,0,0,0,1.15-.37l-.91-2.8a.59.59,0,0,0-.52-.41ZM149.15,535a.61.61,0,0,0-.54.54l-.31,2.93a.61.61,0,0,0,1.21.13l.3-2.93a.61.61,0,0,0-.53-.67Zm7.59,0h-.13a.61.61,0,0,0-.54.66l.31,2.93a.61.61,0,0,0,1.21-.13l-.31-2.92a.59.59,0,0,0-.54-.54Z"/><path id="path2150" class="cls-58" d="M181.37,475.73,148.2,495l-21,33,30.67-22.72Z"/><g id="g2847"><path id="path2096" class="cls-59" d="M157.71,505l-9.51-10,33.73-22.68Z"/><path id="path2099" class="cls-26" d="M157.71,505l-9.51-10L124,527.64Z"/><path id="path2112" class="cls-60" d="M124,527.64,157.71,505l24.22-32.64Z"/></g></g></g><path class="cls-4" d="M359.31,1013.42c-2.52-.34-4-1.22-3.7-2.8,11.33-3.12,64-5.33,56,1.28S372.88,1015.27,359.31,1013.42Z"/><rect class="cls-5" x="222.28" y="529.57" width="51.9" height="51.9" rx="3.64" transform="translate(496.46 1111.04) rotate(180)"/><path class="cls-6" d="M235,615.8c9.13.1,18.26.42,27.39.74-1.12-14.25-2-28.52-3.11-42.78-7.16.09-14.33.15-21.5.22Q236.64,594.91,235,615.8Z"/><rect class="cls-6" x="228.27" y="539.1" width="50.43" height="48.67" rx="10.18" transform="translate(506.96 1126.86) rotate(180)"/><rect class="cls-5" x="226.28" y="535.66" width="16.42" height="38.1" rx="3.64" transform="translate(468.97 1109.42) rotate(180)"/><path class="cls-6" d="M239.24,565.55a8.35,8.35,0,0,1-9.27,8.64,10.11,10.11,0,0,1-9.49-10,8.34,8.34,0,0,1,9.27-8.64A10.08,10.08,0,0,1,239.24,565.55Z"/><circle class="cls-5" cx="274.79" cy="541.34" r="14.24"/><circle class="cls-5" cx="255.91" cy="541.34" r="14.24"/><polygon class="cls-6" points="296.04 643.77 309.35 675.68 334.99 652.66 348.59 661.53 305.02 706.58 265.46 649.97 296.04 643.77"/><path class="cls-6" d="M350.29,635.64h0a8.58,8.58,0,0,1,4.78,10.78l-4.18,11.79a8.59,8.59,0,0,1-11.39,5l-1.26-.53a8.57,8.57,0,0,1-4.42-11.64l5.45-11.27A8.57,8.57,0,0,1,350.29,635.64Z"/><path class="cls-61" d="M278.93,603.38l-23.54,8.9a8,8,0,0,0-4.56,10.56l19.09,46,2.67-.81c4.12-1.25,8.35-2.46,12.44-3.63l4.43-1.27c4.49-1.3,7.93-2.33,11.16-3.37l2.82-.9-14-50.19A8,8,0,0,0,278.93,603.38Z"/><path class="cls-61" d="M202.21,601.78H291a0,0,0,0,1,0,0v98.62a10,10,0,0,1-10,10h-68.9a10,10,0,0,1-10-10V601.78A0,0,0,0,1,202.21,601.78Z" transform="translate(493.25 1312.15) rotate(180)"/><path class="cls-62" d="M200.33,974.08l9.62,1.29a2.94,2.94,0,0,1,2.53,3.44L209,1001.93l-15.71,0,2.86-24.59A3.8,3.8,0,0,1,200.33,974.08Z"/><path class="cls-62" d="M245.59,1011.38l-53.31.09,1-9.51,15.71,0S246.28,1005.1,245.59,1011.38Z"/><path class="cls-63" d="M193.87,996.92l-1.58,14.55,54.07-.09c1.4-12.84-36.51-14.49-36.51-14.49Z"/><path class="cls-64" d="M223.72,983.25l-17.67-.87-17.67-.86,15.75-134.31L199.4,712.54c0-1.2,1-3.88,2.25-3.92h53.1l-9.92,139.65Z"/><path class="cls-6" d="M290,966.81l-2.58,36.12h-15.7L273,969a2,2,0,0,1,1.67-1.9l13.08-2.31A1.87,1.87,0,0,1,290,966.81Z"/><path class="cls-6" d="M324.69,1012.45H271.44l.29-9.52h15.7S324.88,1006.17,324.69,1012.45Z"/><path class="cls-65" d="M271.9,997.89l-.45,14.56h54c.4-12.84-37.59-14.56-37.59-14.56Z"/><path class="cls-66" d="M300.35,982l-17.77.18-17.77.17.09-134.57L236.75,708.62h51.63c1.95,0,3.58.8,3.86,2.73l14.25,128Z"/><polygon class="cls-6" points="189.86 635.75 213.14 655.58 200.9 671.38 242.16 719.47 236.67 725.45 231.18 731.42 169.06 672 189.86 635.75"/><path class="cls-6" d="M254.54,741.85h0a8.57,8.57,0,0,1-11.76.83l-9.67-7.95a8.58,8.58,0,0,1-.87-12.42l.93-1a8.58,8.58,0,0,1,12.45-.19l8.74,9A8.56,8.56,0,0,1,254.54,741.85Z"/><path class="cls-61" d="M233.94,614.54l-17.08-10.49a10.41,10.41,0,0,0-14.49,3.7l-23.5,41.12,2.26,1.62c3.52,2.49,7.06,5.1,10.49,7.61l3.71,2.73c3.77,2.76,6.7,4.85,9.49,6.77l2.44,1.68,29.58-39.64A10.41,10.41,0,0,0,233.94,614.54Z"/><path class="cls-5" d="M337.62,654.83l-.78-.48a1.38,1.38,0,0,1-.45-1.9l19.55-31.66a1.46,1.46,0,0,1,2-.59l.78.48a1.46,1.46,0,0,1,.36,2l-19.55,31.67A1.37,1.37,0,0,1,337.62,654.83Z"/><path class="cls-6" d="M346.34,641.64h0a4,4,0,0,1,2.77,4.73L347.8,652a4,4,0,0,1-5,2.94l-.61-.18a4,4,0,0,1-2.66-5.15l1.92-5.5A4,4,0,0,1,346.34,641.64Z"/><path class="cls-7" d="M518.17,627.15l3.38,30.69,13.36-.52-2.23-28.84a1.7,1.7,0,0,0-1.48-1.56L520,625.38A1.59,1.59,0,0,0,518.17,627.15Z"/><path class="cls-67" d="M534.61,653l.86,12.39-46,1.78c-.76-10.93,31.51-13.65,31.51-13.65Z"/><path class="cls-68" d="M509.87,640.46,525,640l15.13-.44-8.82-110.35L558.8,411.32,514.85,410c-1.66,0-3.07.59-3.35,2.23L496.12,521Z"/><path class="cls-69" d="M619.75,614.38l-7,3.46a2.39,2.39,0,0,0-1.06,3.29L620,637.91l11.92-4-8.21-18.09A3,3,0,0,0,619.75,614.38Z"/><path class="cls-70" d="M630.29,630.24,635,640.91,594.2,654.47c-4.28-9.33,23.95-20.18,23.95-20.18Z"/><path class="cls-66" d="M604.25,627.4l13.2-5.17L630.7,617l-50.51-86.87,7.44-114.65c0-1-.79-3.33-1.82-3.4l-45.21-1.35,4.91,119.28Z"/><rect class="cls-71" x="931.27" y="445.64" width="26.8" height="19.72" rx="9.86" transform="translate(-90.99 620.7) rotate(-34.81)"/><path class="cls-71" d="M918.9,444.1h0a33.26,33.26,0,0,1,33.26,33.26v42.36a3.94,3.94,0,0,1-3.94,3.94H889.57a3.94,3.94,0,0,1-3.94-3.94V477.37A33.26,33.26,0,0,1,918.9,444.1Z" transform="translate(17.69 -32.2) rotate(2.03)"/><path class="cls-8" d="M933,541.5c-10-.25-19.91-.26-29.87-.25,1.77-15.48,3.3-31,5-46.47l23.41,1.06Q932.09,518.68,933,541.5Z"/><path class="cls-8" d="M899.13,509.72l5.15.19c11.62.41,32.57-8.29,33-19.91l.39-10.92a21.07,21.07,0,0,0-20.3-21.79l-5.15-.18a21.06,21.06,0,0,0-21.79,20.3L890,488.33C889.61,500,887.51,509.31,899.13,509.72Z"/><path class="cls-8" d="M930.38,486.6a9.1,9.1,0,0,0,9.76,9.77,11,11,0,0,0,10.73-10.47,9.11,9.11,0,0,0-9.77-9.77A11,11,0,0,0,930.38,486.6Z"/><rect class="cls-71" x="906.13" y="455.14" width="26.8" height="19.72" rx="9.86" transform="translate(440.65 -447.38) rotate(35.48)"/><rect class="cls-71" x="884.89" y="454.36" width="26.8" height="19.72" rx="9.86" transform="translate(-103.04 323.65) rotate(-19.34)"/><rect class="cls-71" x="923.39" y="466.99" width="23.86" height="12.22" rx="6.11" transform="translate(1328.31 -498.6) rotate(85.19)"/><path class="cls-8" d="M874.51,529.9l-19,62.75-53.08-13.56L806.09,594s49.5,26,59,23.69,30.31-82,30.31-82A10.85,10.85,0,0,0,887.66,522h0A10.84,10.84,0,0,0,874.51,529.9Z"/><path class="cls-8" d="M784.33,581.23h0a8.09,8.09,0,0,0,5.45,9.69l11.28,3.49a8.1,8.1,0,0,0,10.24-5.76l.31-1.25a8.09,8.09,0,0,0-6.31-9.91l-11.59-2.23A8.08,8.08,0,0,0,784.33,581.23Z"/><path class="cls-72" d="M820.31,583.88l-4.38,13.77a1.62,1.62,0,0,1-2,1.05l-1.82-.57-2.83-.91-1.83-.58a1.61,1.61,0,0,1-1-2l4.39-13.78a1.62,1.62,0,0,1,2-1.05l1.81.58,2.85.91,1.81.58A1.6,1.6,0,0,1,820.31,583.88Z"/><path class="cls-73" d="M817.45,581.28a1.49,1.49,0,0,1-.05.36l-5.15,16.16a.87.87,0,0,1-.17.33l-2.83-.91a1.2,1.2,0,0,1,0-.37l5.14-16.15a1.29,1.29,0,0,1,.17-.33Z"/><path class="cls-74" d="M962.61,625.53l-82.45,4.4,6.51-42.88-5-55.68a7.18,7.18,0,0,1,6.91-7.81l29.9-1,30.89-1a6.38,6.38,0,0,1,6.59,6.37v56.83Z"/><path class="cls-8" d="M815.23,868.85l-.91-.82a1.25,1.25,0,0,1-.2-.19l-.41-.28c-.78-.56-1.54-1.13-2.34-1.67a77.48,77.48,0,0,0-9.91-5.65l-9.14,30,6.4,4.21,6.4,4.21Z"/><path class="cls-8" d="M756.62,877.82,800,906.38l5.12-7.77-12.8-8.42S760,872.69,756.62,877.82Z"/><path class="cls-68" d="M798,869.48l10,6.76,5,3.43L881.35,746l49.48-125.37-49.54,2.48a5.35,5.35,0,0,0-4.41,3.55L832.78,745.2Z"/><path class="cls-75" d="M808.52,890c1,2.34-7,16.44-8.91,16.52-5.42.16-30.43-16.82-36.12-20.85-8.1-5.76-7.38-8.51-7.38-8.51,5.9-8.87,36.08,7.55,36.08,7.55l2.44-2.7C796.37,885.46,805.4,890.65,808.52,890Z"/><path class="cls-8" d="M1047.31,779c-.16.37-3.26,12-3.74,15.8l30.64,4.6,1.5-7.51,1.51-7.5Z"/><path class="cls-75" d="M1073.12,783.62c1.84-1.75,17.87.7,18.64,2.48,2.1,5-4.75,34.56-6.47,41.35-2.46,9.66-5.29,10-5.29,10-10.4-2.38-6-37.14-6-37.14l-3.18-1.14C1073.5,796.26,1074.88,786.32,1073.12,783.62Z"/><path class="cls-66" d="M1058.06,801.22l3.59-11.49,3.6-11.49L959.41,727.45l4.13-104a3.57,3.57,0,0,0-3.66-4.45l-49.27,2.74c-1.21.21-2,2.55-2.29,4.47l7.39,134.08Z"/><path class="cls-8" d="M945.52,538.5c6.93,14.18,20.16,34.11,33.53,54.18l-34.93,33.57,12.62,8.68s44.37-33,46.2-38.88c1-3.18-38.53-69.06-38.53-69.06C956.11,513.38,937.22,524.9,945.52,538.5Z"/><path class="cls-8" d="M931.06,640.15h0a8.07,8.07,0,0,0,10.51,3.62l10.75-4.87a8.1,8.1,0,0,0,3.83-11.11l-.6-1.14a8.09,8.09,0,0,0-11.3-3.22l-10.15,6A8.09,8.09,0,0,0,931.06,640.15Z"/><path class="cls-76" d="M978.42,550.87l-18.58,10.92a1.33,1.33,0,0,1-1.82-.43l-2-3.24a1.34,1.34,0,0,1,.43-1.83L975,545.38a1.33,1.33,0,0,1,1.83.42l2,3.24A1.33,1.33,0,0,1,978.42,550.87Z"/><rect class="cls-76" x="958.83" y="536.81" width="16.96" height="33.28" rx="1.63" transform="translate(-146.82 580.16) rotate(-31.15)"/><rect class="cls-77" x="959.31" y="537.21" width="15.92" height="32.34" rx="1.63" transform="translate(-146.79 580.13) rotate(-31.15)"/><path id="path980-2" data-name="path980" class="cls-78" d="M969.65,549.81a2.26,2.26,0,0,0-1.25-.39,4.16,4.16,0,0,1,1,.79h0c-1-.69-1.93-.63-3-1.11l-.17-.07-.08,0a.71.71,0,0,1-.14-.1h0a3,3,0,0,0,.11,2.65,2.05,2.05,0,0,0-.68,1h-.13a1.77,1.77,0,0,1-.56-.81,3.06,3.06,0,0,0-.39,1.17h0c-.25-.08-.62-.64-.69-.76l-.07.14a2.83,2.83,0,0,0-.13.5,2.88,2.88,0,0,0-.06.59h0a3.32,3.32,0,0,0,.24,1.32v0a2.56,2.56,0,0,0,.11.24h0a3.93,3.93,0,0,0,.26.5v0a4.05,4.05,0,0,0,7-4,.61.61,0,0,0-.07-.14A4.12,4.12,0,0,0,969.65,549.81Zm-2.08,5.25h0Zm1.87-4.85Z"/><path id="path982-2" data-name="path982" class="cls-79" d="M969.65,549.81a2.26,2.26,0,0,0-1.25-.39,4.16,4.16,0,0,1,1,.79h0a3.69,3.69,0,0,1,1.43,2.34,3.49,3.49,0,0,1-1.66,3.51,4.09,4.09,0,0,1-5.08-.56,1.73,1.73,0,0,1-.36-.58,2.62,2.62,0,0,0,.26.5v0a4.05,4.05,0,0,0,7-4,.61.61,0,0,0-.07-.14A4.12,4.12,0,0,0,969.65,549.81Z"/><path id="path984-2" data-name="path984" class="cls-80" d="M969.65,549.81a2.26,2.26,0,0,0-1.25-.39,4.16,4.16,0,0,1,1,.79h0a3.69,3.69,0,0,1,1.43,2.34,3.49,3.49,0,0,1-1.66,3.51,4.09,4.09,0,0,1-5.08-.56,1.73,1.73,0,0,1-.36-.58,2.62,2.62,0,0,0,.26.5v0a4.05,4.05,0,0,0,7-4,.61.61,0,0,0-.07-.14A4.12,4.12,0,0,0,969.65,549.81Z"/><path id="path986-2" data-name="path986" class="cls-81" d="M968.29,551.31h0a2,2,0,0,0-.59-.19,2.06,2.06,0,0,1-1.72-2.23h0a3,3,0,0,0,.11,2.65l.12-.09A2,2,0,0,1,968.29,551.31Z"/><path id="path988-2" data-name="path988" class="cls-82" d="M967,552.51a1,1,0,0,1-.15.65c-.95.65-.71,1.33-.71,1.33a1.69,1.69,0,0,0,1.53.56h.08l.12,0a1.43,1.43,0,0,0,.49-.21,1.68,1.68,0,0,0-1-3.14,1.4,1.4,0,0,1,.94-.35,2,2,0,0,0-2,.14l-.12.09a2.05,2.05,0,0,0-.68,1l.38.06A5.73,5.73,0,0,0,967,552.51Z"/><path id="path990-2" data-name="path990" class="cls-83" d="M967,552.51a1,1,0,0,1-.15.65c-.95.65-.71,1.33-.71,1.33a1.69,1.69,0,0,0,1.53.56h.08l.12,0a1.43,1.43,0,0,0,.49-.21,1.68,1.68,0,0,0-1-3.14,1.4,1.4,0,0,1,.94-.35,2,2,0,0,0-2,.14l-.12.09a2.05,2.05,0,0,0-.68,1l.38.06A5.73,5.73,0,0,0,967,552.51Z"/><path id="path992-2" data-name="path992" class="cls-84" d="M965.21,552.51h.1a1.87,1.87,0,0,1-.57-.81,3.22,3.22,0,0,0-.38,1.17A2.1,2.1,0,0,1,965.21,552.51Z"/><path id="path994-2" data-name="path994" class="cls-85" d="M964.13,555.5a4.09,4.09,0,0,0,5.08.56,3.49,3.49,0,0,0,1.66-3.51,3.69,3.69,0,0,0-1.43-2.34h0a2.75,2.75,0,0,1,.49,2.64h0a2.83,2.83,0,0,1-2.29,2.19h-.07a1.84,1.84,0,0,1-2-.89,1.07,1.07,0,0,1-1.14,0,1.54,1.54,0,0,1,1.2-.89,2,2,0,0,0,1.29-.81,5.66,5.66,0,0,1-1.14.07l-.38-.06h-.23a2.1,2.1,0,0,0-.85.36h0c-.25-.08-.61-.64-.68-.76a.64.64,0,0,0-.08.14,2.83,2.83,0,0,0-.13.5,2.88,2.88,0,0,0-.06.59h0a3.32,3.32,0,0,0,.24,1.32A2.74,2.74,0,0,0,964.13,555.5Z"/><path id="path996-2" data-name="path996" class="cls-86" d="M967.73,551.12a2,2,0,0,1,.59.19h.08a1.93,1.93,0,0,1,1.53,1.54,2.76,2.76,0,0,0-.49-2.65c-1-.69-1.93-.63-3-1.11l-.17-.07-.08,0a.71.71,0,0,1-.14-.1h0A2.06,2.06,0,0,0,967.73,551.12Z"/><path id="path998-2" data-name="path998" class="cls-87" d="M968.4,551.32h-.11a1.4,1.4,0,0,0-.94.35,1.68,1.68,0,0,1,1,3.14,1.51,1.51,0,0,1-.49.21l-.13,0h-.07a2.84,2.84,0,0,0,2.3-2.19h0A2,2,0,0,0,968.4,551.32Z"/><path id="path1000-2" data-name="path1000" class="cls-88" d="M966.1,554.49s-.24-.68.71-1.33a1,1,0,0,0,.15-.65,2,2,0,0,1-1.29.81,1.52,1.52,0,0,0-1.2.89,1.07,1.07,0,0,0,1.14,0,1.84,1.84,0,0,0,2,.89h.06A1.69,1.69,0,0,1,966.1,554.49Z"/><path id="path1002-2" data-name="path1002" class="cls-89" d="M969.65,549.81a2.26,2.26,0,0,0-1.25-.39,4.16,4.16,0,0,1,1,.79h0c-1-.69-1.93-.63-3-1.11l-.17-.07-.08,0a.71.71,0,0,1-.14-.1h0a3,3,0,0,0,.11,2.65l.12-.09a2,2,0,0,1,2-.14,1.4,1.4,0,0,0-.94.35,1.68,1.68,0,0,1,1,3.14,1.43,1.43,0,0,1-.49.21l-.12,0h-.08a1.69,1.69,0,0,1-1.53-.56s-.24-.68.71-1.33a1,1,0,0,0,.15-.65,5.73,5.73,0,0,1-1.14.07l-.38-.06h-.13a1.77,1.77,0,0,1-.56-.81,3.06,3.06,0,0,0-.39,1.17h0c-.25-.08-.62-.64-.69-.76l-.07.14a2.83,2.83,0,0,0-.13.5,2.88,2.88,0,0,0-.06.59h0a3.32,3.32,0,0,0,.24,1.32v0a1.73,1.73,0,0,0,.1.24h0a4.82,4.82,0,0,0,.27.5v0a4.05,4.05,0,0,0,7-4,.61.61,0,0,0-.07-.14A4.12,4.12,0,0,0,969.65,549.81Zm-.21.4Z"/><rect class="cls-76" x="955.8" y="539.08" width="6.67" height="1.63" rx="0.3" transform="translate(-140.99 573.98) rotate(-31.15)"/><circle class="cls-90" cx="960.01" cy="539.46" r="0.22"/><circle class="cls-90" cx="958.35" cy="540.47" r="0.22"/><path class="cls-91" d="M966.56,536.82l1.33,2.19,1.08,1.8,1,1.73,11.58,19.17a1.62,1.62,0,0,1-.55,2.23l-9,5.44-.87.53-1,.58-.11.06a1.63,1.63,0,0,1-2.13-.61L966.2,567l-13.26-21.94a1.64,1.64,0,0,1,.55-2.24l10.39-6.28.45-.27A1.62,1.62,0,0,1,966.56,536.82Z"/><path class="cls-92" d="M965.57,536.09a1.65,1.65,0,0,0-1.24.18l-.45.27L966.2,567l1.55,2.56.23.38a1.63,1.63,0,0,0,1.34.79l-.09-.14-.23-.38-2.14-32.9-.3-.49A1.61,1.61,0,0,0,965.57,536.09Z"/><path class="cls-92" d="M967.89,539l1.08,1.8,1,1.73,2,26.84-.87.53-1,.58-.11.06-.2-.32Z"/><path class="cls-72" d="M955.89,634.87l-8-12a1.62,1.62,0,0,1,.44-2.24l1.58-1.07,2.48-1.65,1.59-1.07a1.6,1.6,0,0,1,2.22.44l8.06,12a1.62,1.62,0,0,1-.44,2.24l-1.58,1.06-2.48,1.66-1.58,1.06A1.62,1.62,0,0,1,955.89,634.87Z"/><path class="cls-73" d="M959.71,634.24a1.07,1.07,0,0,1-.25-.27L950,619.89a1,1,0,0,1-.15-.34l2.48-1.65a1.28,1.28,0,0,1,.26.26L962,632.24a1.14,1.14,0,0,1,.15.34Z"/><path class="cls-93" d="M435.48,933.48c10-8.39,2.3-20.54-4-11.16.21-11.18-11.57-11-11,0-6.32-9.38-14,2.77-4,11.16-11.2-9.92-15.1,3.27,1.7,5.59h15.65C450.58,936.75,446.68,923.56,435.48,933.48Z"/><path class="cls-93" d="M786.86,741.59c9.15-7.68,2.1-18.8-3.68-10.21.18-10.23-10.59-10-10.08,0-5.79-8.59-12.84,2.53-3.68,10.21-10.26-9.08-13.83,3,1.55,5.12H785.3C800.68,744.59,797.11,732.51,786.86,741.59Z"/><path class="cls-4" d="M744,916.91c-1.45,1.28-71.59,3.13-75.15-.4s25.81-5,38.65-6.15a71.67,71.67,0,0,1,16.88.35C727.88,911.23,745.45,915.64,744,916.91Z"/><path class="cls-4" d="M656.36,898.72c-2.17,2.47-40.75,1.9-45.63-.25s15.66-3,23.47-3.73a43.31,43.31,0,0,1,10.24.21C646.57,895.27,658.52,896.25,656.36,898.72Z"/><g class="cls-94"><path class="cls-95" d="M645,664.83c2.22-2.47-10-3.47-12.23-3.79a46.28,46.28,0,0,0-10.52-.23c-8,.7-29.08,1.55-24.07,3.71S642.81,667.29,645,664.83Z"/><path class="cls-96" d="M787.4,543.43a43.36,43.36,0,0,0,42.7-36c.07-.56.13-1.11.2-1.68A44.61,44.61,0,0,0,827.48,484c-1.88-4.53-5.7-9.43-8.69-11a45.25,45.25,0,0,1,4.39,13.16v.06c-4.6-11.45-12.19-16.5-18.71-25.93-.44-.62-.87-1.27-1.29-1.94s-.69-1.09-1-1.66c-.2-.33-.35-.63-.48-.9a7.92,7.92,0,0,1-.65-1.72.12.12,0,0,0-.1-.11.11.11,0,0,0-.08,0h0l0,0,0,0a28.26,28.26,0,0,0-5.4,4.09,30.64,30.64,0,0,0-5.09,6.45,32.75,32.75,0,0,0-1.75,3.36c-.43,1-.8,1.91-1.12,2.84a35.76,35.76,0,0,0-1.06,3.76,24.37,24.37,0,0,0-.5,3.49s0,.07,0,.1a21.73,21.73,0,0,0-11.93,4.6c-.36-.3-.74-.59-1.12-.85a20.17,20.17,0,0,1-.13-10.6h0a32.16,32.16,0,0,0-10.44,8.07h0c-1.71-2.19-1.59-9.35-1.5-10.85h0v0a7.19,7.19,0,0,0-1.45.77,31.15,31.15,0,0,0-4.24,3.63,37.68,37.68,0,0,0-4.05,4.86h0a36.48,36.48,0,0,0-4.25,7.95c-.43,1.12-.81,2.27-1.13,3.43-.16.58-.31,1.17-.44,1.76,0,.05-.5,2.18-.79,4.66a32.42,32.42,0,0,0-.41,4.4v.23A43.36,43.36,0,0,0,787.4,543.43Zm-9.29-25.21h0l-.61-.31C777.71,518,777.9,518.13,778.11,518.22Z"/><path class="cls-97" d="M187,529.64a45.18,45.18,0,1,0-68.13,0,44.48,44.48,0,0,0,68.13,0Z"/><path class="cls-98" d="M355.61,1010.62c-.32,1.58,1.18,2.46,3.7,2.8,13.57,1.85,44.18,5.09,52.26-1.52S366.94,1007.5,355.61,1010.62Z"/><path class="cls-99" d="M350.9,635.93l8.16-13.22a1.46,1.46,0,0,0-.36-2l-.78-.48a1.46,1.46,0,0,0-2,.59L347.18,635a8.56,8.56,0,0,0-7.91,4.84l-5.45,11.27a8.56,8.56,0,0,0-.85,3.38l-23.62,21.21-6.87-16.46,1-.31L291,614.34v-2.6a10,10,0,0,0-10-10H261.32l-1-14h8.18a10.18,10.18,0,0,0,10.18-10.18V555a14.23,14.23,0,1,0-11.91-25.45h-2.86a14.24,14.24,0,0,0-16,0h-22a3.64,3.64,0,0,0-3.64,3.64v25.51a8.69,8.69,0,0,0-1.8,5.52,9.79,9.79,0,0,0,1.8,5.64v8a3.64,3.64,0,0,0,3.64,3.64H229a10.19,10.19,0,0,0,8,6.18q-.45,7.07-1,14.13H212.17a9.9,9.9,0,0,0-6.67,2.58,10.53,10.53,0,0,0-3.13,3.39l-23.5,41.12,2.26,1.62.2.13L169.06,672l33.15,31.71v4.91h-.56c-1.21,0-2.21,2.72-2.25,3.92l4.73,134.67L188.38,981.52l7.27.36-1.75,15h0l-.41,3.77-.14,1.27h0l-1,9.51h0l54.07-.09c1.4-12.84-36.51-14.49-36.51-14.49h-.06l2.12-14.22,11.81.58,21.11-135,5.24-73.78,14.83,73.32-.09,134.57,7.72-.07-.6,15.58h0l-.12,3.77,0,1.27h0l-.29,9.52h54c.4-12.84-37.59-14.56-37.59-14.56h-.07l1.13-15.74,11.43-.12,6.14-142.69-14.25-128a2.84,2.84,0,0,0-1.2-2V686.57l14,20,42.9-44.36a8.57,8.57,0,0,0,3-4l4.18-11.79A8.57,8.57,0,0,0,350.9,635.93Zm-148.69,37-1.31-1.53,1.31-1.69Z"/><path class="cls-100" d="M631.93,633.94h0l-.42-.93-1.23-2.77h0l-5-11.07L630.7,617l-50.51-86.87,7.44-114.65c0-1-.79-3.33-1.82-3.4l-34.26-1H587.4V378.3l4.32,5.44,6.49,57.95a6.94,6.94,0,0,0-.74,3.74l.86,10.11a7,7,0,0,0,13.88-.42l.25-10.14a6.91,6.91,0,0,0-1-3.8l-1.94-68.69-7.75-15.89.75-.38a3.2,3.2,0,0,0,1-4.38l-13.1-25.35a11.69,11.69,0,0,0-9.31-6.28,8,8,0,0,0-2-.26H559.29q-.7-10.06-1.31-20.14A17.09,17.09,0,0,0,569.11,292a9.26,9.26,0,0,0,4.71-8,8,8,0,0,0-2.15-5.71v-9.69a17.08,17.08,0,0,0-17.08-17.08H540.13a17,17,0,0,0-13.62,6.81l-4.35,1.06a9.47,9.47,0,0,0-6.95,11.45h0a9.44,9.44,0,0,0,6.46,6.8c0,.3,0,.6,0,.9V288c0,10-1.52,18.1,8.48,18.1h4.43a19.21,19.21,0,0,0,2-.1l-1,14H521.27a8.36,8.36,0,0,0-6.93,3.68,12.74,12.74,0,0,0-3.2,4.58l-13.1,32,4.48,1.79-7.6,13.75-51.26,1.08a12.51,12.51,0,0,0-5.36-3.12l-2.68-.05a1.91,1.91,0,0,0-.68.12l-.9-.23c-4.33-2.94-8.31-5.62-9.93-6.76a2.18,2.18,0,0,0-2.28-.13l-8.27,4.47a2.19,2.19,0,0,0-.31,3.67l8.22,6a7.15,7.15,0,0,0,4.54,5.45L432,388.5l7,5.1a2.19,2.19,0,0,0,2.91-.21L444,391l64.12,3,4.78-6v22.35a2.4,2.4,0,0,0-1.42,1.86L496.12,521l13.75,119.5,9.73-.28,1.48,13.37H521s-32.27,2.72-31.51,13.65l46-1.78-.57-8.1h0l-.08-1.08-.22-3.21h0l-1-13.26,6.58-.19-8.82-110.35,12-51.64,2.16,52.46,58.74,97.35,8.82-3.45,5.14,10.32-.06,0s-28.23,10.85-23.95,20.18L635,640.91Z"/><path class="cls-101" d="M1091.76,786.1c-.77-1.78-16.8-4.23-18.64-2.48v0l-9.06-1.63,1.18-3.77L959.41,727.45l3.8-95.55.56-.38a1.62,1.62,0,0,0,.45-2.22c12.72-9.69,37.37-28.88,38.72-33.25.58-1.89-13.2-26-24.44-45.25a1.32,1.32,0,0,0,.35-1.76l-2-3.24a1.32,1.32,0,0,0-1.58-.52C969.12,534.85,964.41,527,964.41,527c-3.59-5.88-9.14-7.06-13.63-5.42a5.21,5.21,0,0,0,.09-.69l1.5-42.33a33.26,33.26,0,0,0-2.75-14.49l3.59-2.49A9.86,9.86,0,0,0,942,445.38l-5.33,3.71a33.07,33.07,0,0,0-16.32-5h0a33.21,33.21,0,0,0-25.91,11l-2.71.95a9.86,9.86,0,0,0-6,12.57,9.48,9.48,0,0,0,.93,1.92,33.47,33.47,0,0,0-.69,5.62l-1.49,42.33a3.91,3.91,0,0,0,1.5,3.22,10.83,10.83,0,0,0-11.38,8.15l-19,62.75-35.14-9a1.6,1.6,0,0,0-1.1-1.81l-1.81-.58-2.85-.91-1.81-.58a1.62,1.62,0,0,0-2,1.05l-.11.36h0a8.1,8.1,0,0,0-5.35-3.7l-11.59-2.23a8.08,8.08,0,0,0-3.93,15.66l11.28,3.49a8,8,0,0,0,5.43-.24l0,0-.14.43a1.61,1.61,0,0,0,1,2l1.83.58,2.83.91,1.82.57a1.59,1.59,0,0,0,1.25-.12c14.75,7.37,43,20.78,50,19.07,5.13-1.26,13.49-24.84,20.13-46.39l1.41,15.79-5.47,36a5.35,5.35,0,0,0-4.32,3.53L832.78,745.2,798,869.48l.56.38-3.77,12.34a2.53,2.53,0,0,1-.13-.22l-2.44,2.7s-30.18-16.42-36.08-7.55c0,0-.72,2.75,7.38,8.51,5.69,4,30.7,21,36.12,20.85a1,1,0,0,0,.36-.14l0,0,0-.07c2.47-1.66,9.38-14.15,8.47-16.34a3.45,3.45,0,0,1-.48,0l3.77-11.11,1.13.77L881.35,746l29.46-74.65,4.9,89,142.35,41,1.27-4.07,11.72,1.76-.18.23,3.18,1.14s-4.45,34.76,6,37.14c0,0,2.83-.31,5.29-10C1087,820.66,1093.86,791.13,1091.76,786.1ZM891,523.48a10.85,10.85,0,0,0-1.54-.83l12.77.45Zm65,34.63h0l2,3.24a1.32,1.32,0,0,0,1,.6c6,9.66,13,20.17,20.07,30.72l-18.83,18.1L956,584.71Z"/><path class="cls-102" d="M435.48,933.48c10-8.39,2.3-20.54-4-11.16.21-11.18-11.57-11-11,0-6.32-9.38-14,2.77-4,11.16-11.2-9.92-15.1,3.27,1.7,5.59h15.65C450.58,936.75,446.68,923.56,435.48,933.48Z"/><path class="cls-103" d="M783.18,731.38c.18-10.23-10.59-10-10.08,0-5.79-8.59-12.84,2.53-3.68,10.21-10.26-9.08-13.83,3,1.55,5.12H785.3c15.38-2.12,11.81-14.2,1.56-5.12C796,733.91,789,722.79,783.18,731.38Z"/><path class="cls-104" d="M724.38,910.71a71.67,71.67,0,0,0-16.88-.35c-12.84,1.17-42.21,2.62-38.65,6.15s73.7,1.68,75.15.4S727.88,911.23,724.38,910.71Z"/><path class="cls-105" d="M644.44,895a43.31,43.31,0,0,0-10.24-.21c-7.81.71-28.35,1.59-23.47,3.73s43.46,2.72,45.63.25S646.57,895.27,644.44,895Z"/></g><rect class="cls-1" width="1200" height="1200"/></g></g></svg>